# xmcd
#
# Track frame offsets:
#	151
#	11922
#	26950
#	41432
#	54220
#	66355
#	79970
#	93903
#	100741
#	112641
#	125361
#	136473
#	150816
#	160618
#	171076
#	184810
#	192392
#	203621
#
# Disc length: 2942
#
# Revision: 1
# Processed by: cddbd v1.5.1PL0 Copyright (c) Steve Scherf et al.
# Submitted via: CDex 1.51
# Normalized: r0:TDELIM( - ),TSWAP
#
DISCID=df0b7c12
DTITLE=Various Artist - Jazz Divas
DYEAR=1900
DGENRE=Jazz
TTITLE0=Andrews Sisters - Sing, Sing, Sing
TTITLE1=Billie Holiday - Tain't Nobodys Business If I Do
TTITLE2=Lena Horne - A Fine Romance
TTITLE3=Peggy Lee - Elmers Tune
TTITLE4=Dinah Shore - Honeysuckle Rose
TTITLE5=Maxine Sullivan - The Folks Who Live On The Hill
TTITLE6=Ella Fitzgerald - Darktown Strutter's Ball
TTITLE7=Doris Day - s Wonderful
TTITLE8=Sarah Vaughan - I'm Gonna Sit Right Down And Write Myself a Letter
TTITLE9=Judy Garland - I Got Rhythm
TTITLE10=Dinah Washington - What A Difference A Day Makes
TTITLE11=Bessie Smith - I Ain't Got Nobody
TTITLE12=Peggy Lee - The Lady Is a Tramp
TTITLE13=Dinah Shore - Yes My Darling Daughter
TTITLE14=Connie Boswell - You Were Meant For Me
TTITLE15=Billie Holiday - All Of Me
TTITLE16=Ella Fitzgerald - Paper Moon
TTITLE17=Lena Home - Everytime We Say Goodbye
EXTD=
EXTT0=
EXTT1=
EXTT2=
EXTT3=
EXTT4=
EXTT5=
EXTT6=
EXTT7=
EXTT8=
EXTT9=
EXTT10=
EXTT11=
EXTT12=
EXTT13=
EXTT14=
EXTT15=
EXTT16=
EXTT17=
PLAYORDER=
